<svg id="svg" version="1.1" xmlns="http://www.w3.org/2000/svg" xmlns:xlink="http://www.w3.org/1999/xlink" width="400" height="400" viewBox="0, 0, 400,400"><g id="svgg"><path id="path0" d="M167.648 180.650 C 167.483 180.918,167.749 181.619,170.563 188.333 C 173.854 196.188,175.021 198.986,178.516 207.407 C 180.587 212.398,182.678 217.398,183.164 218.519 C 183.649 219.639,186.812 227.222,190.191 235.370 C 200.849 261.070,199.911 259.426,201.547 255.286 C 202.707 252.350,202.144 253.703,217.227 217.593 C 233.015 179.792,232.535 180.963,232.346 180.648 C 232.042 180.143,221.189 180.318,220.855 180.833 C 220.690 181.088,216.040 192.546,210.520 206.296 C 204.165 222.127,200.301 231.296,199.983 231.296 C 199.666 231.296,195.803 222.100,189.432 206.171 C 183.904 192.352,179.145 180.896,178.857 180.713 C 178.223 180.312,167.893 180.254,167.648 180.650 M107.783 278.426 L 107.778 288.148 109.074 288.148 L 110.370 288.148 110.370 281.667 C 110.370 278.102,110.458 275.185,110.565 275.185 C 110.671 275.185,112.380 276.888,114.361 278.969 C 116.342 281.051,119.250 284.093,120.824 285.729 L 123.685 288.704 123.694 278.981 L 123.704 269.259 122.593 269.259 L 121.481 269.259 121.481 275.534 C 121.481 279.231,121.332 281.900,121.119 282.032 C 120.919 282.156,119.129 280.541,117.141 278.443 C 115.153 276.346,112.235 273.296,110.657 271.667 L 107.789 268.704 107.783 278.426 M163.999 270.996 C 163.473 272.180,161.456 276.523,159.516 280.648 L 155.990 288.148 157.347 288.136 C 158.642 288.124,158.749 288.024,159.702 285.914 L 160.700 283.704 164.924 283.704 L 169.148 283.704 170.030 285.926 C 170.889 288.087,170.951 288.148,172.295 288.148 L 173.677 288.148 172.991 286.574 C 170.973 281.946,165.879 270.606,165.451 269.790 L 164.956 268.844 163.999 270.996 M191.962 269.283 C 185.579 270.521,182.329 277.561,185.379 283.544 C 188.988 290.626,199.410 289.794,201.630 282.248 C 202.742 278.469,202.784 278.519,198.519 278.519 L 194.815 278.519 194.815 279.815 L 194.815 281.111 197.203 281.111 L 199.591 281.111 199.207 282.213 C 197.570 286.908,189.949 287.149,187.586 282.580 C 183.811 275.281,192.772 267.959,198.783 273.431 C 199.881 274.431,201.915 273.404,201.043 272.290 C 199.185 269.916,195.313 268.634,191.962 269.283 M259.380 269.281 C 250.802 270.946,249.039 283.020,256.758 287.241 C 260.614 289.350,266.296 288.450,266.296 285.731 C 266.296 284.222,266.319 284.229,264.444 285.185 C 258.121 288.411,251.593 280.840,255.479 274.788 C 257.417 271.771,261.882 270.704,264.961 272.521 L 266.296 273.308 266.296 271.820 C 266.296 269.708,263.145 268.551,259.380 269.281 M64.074 269.444 C 64.074 269.546,65.596 273.338,67.455 277.870 C 69.315 282.403,71.094 286.746,71.409 287.523 C 72.125 289.286,71.778 289.903,76.349 278.741 C 80.517 268.565,80.328 269.259,78.934 269.259 C 77.524 269.259,77.539 269.234,74.790 276.379 C 73.480 279.785,72.258 282.527,72.074 282.471 C 71.891 282.416,70.577 279.421,69.154 275.815 L 66.567 269.259 65.321 269.259 C 64.635 269.259,64.074 269.343,64.074 269.444 M91.728 269.506 C 91.593 269.642,91.481 273.892,91.481 278.951 L 91.481 288.148 92.778 288.148 L 94.074 288.148 94.074 278.704 L 94.074 269.259 93.025 269.259 C 92.448 269.259,91.864 269.370,91.728 269.506 M135.432 269.506 C 134.305 270.634,135.225 271.817,137.315 271.926 L 139.444 272.037 139.544 280.093 L 139.644 288.148 140.933 288.148 L 142.222 288.148 142.222 280.000 L 142.222 271.852 144.259 271.852 L 146.296 271.852 146.296 270.556 L 146.296 269.259 140.988 269.259 C 138.068 269.259,135.568 269.370,135.432 269.506 M214.815 278.704 L 214.815 288.148 219.815 288.148 L 224.815 288.148 224.815 286.852 L 224.815 285.556 221.111 285.556 L 217.407 285.556 217.407 282.593 L 217.407 279.630 220.926 279.630 L 224.444 279.630 224.444 278.333 L 224.444 277.037 220.909 277.037 L 217.374 277.037 217.483 274.537 L 217.593 272.037 221.204 271.931 L 224.815 271.825 224.815 270.542 L 224.815 269.259 219.815 269.259 L 214.815 269.259 214.815 278.704 M278.889 278.680 L 278.889 288.148 282.963 288.148 L 287.037 288.148 287.037 286.852 L 287.037 285.556 284.266 285.556 L 281.496 285.556 281.396 277.500 L 281.296 269.444 280.093 269.328 L 278.889 269.212 278.889 278.680 M298.521 275.810 C 298.523 283.276,298.790 284.691,300.525 286.426 C 303.710 289.611,309.418 288.780,311.374 284.848 C 311.939 283.712,312.035 282.493,312.036 276.481 L 312.037 269.444 310.833 269.328 L 309.630 269.212 309.630 275.921 C 309.630 283.087,309.412 284.147,307.697 285.348 C 306.301 286.326,303.904 286.094,302.506 284.846 L 301.296 283.766 301.111 276.605 L 300.926 269.444 299.722 269.328 L 298.519 269.212 298.521 275.810 M325.833 269.466 C 325.681 269.624,325.556 273.914,325.556 279.000 L 325.556 288.247 329.167 288.072 C 334.639 287.806,336.296 286.649,336.296 283.094 C 336.296 281.016,335.194 279.177,333.656 278.688 C 332.903 278.450,332.904 278.444,333.715 277.581 C 335.526 275.653,334.805 271.693,332.390 270.300 C 331.188 269.607,326.299 268.985,325.833 269.466 M331.700 272.620 C 333.423 274.050,331.793 277.778,329.444 277.778 L 328.148 277.778 328.148 275.062 C 328.148 271.744,329.513 270.805,331.700 272.620 M166.568 277.923 C 168.075 281.357,168.187 281.171,164.703 281.035 L 161.909 280.926 163.243 277.862 C 164.831 274.215,164.941 274.217,166.568 277.923 M333.217 281.176 C 335.245 283.081,333.542 285.556,330.202 285.556 L 328.148 285.556 328.148 282.963 L 328.148 280.370 330.254 280.370 C 331.906 280.370,332.544 280.544,333.217 281.176 " stroke="none" fill="#0b0a07" fill-rule="evenodd"></path><path id="path1" d="M195.506 115.629 C 191.652 119.840,186.125 125.948,181.852 130.722 C 180.324 132.428,178.907 134.006,178.704 134.228 C 178.500 134.450,176.833 136.295,175.000 138.328 C 173.167 140.362,171.500 142.209,171.296 142.434 C 170.692 143.100,165.402 148.974,165.000 149.425 C 164.796 149.654,163.713 150.836,162.593 152.052 C 160.597 154.218,155.663 159.710,154.323 161.256 C 153.623 162.064,151.960 163.892,148.726 167.410 C 146.833 169.470,141.868 175.000,140.619 176.441 C 139.919 177.249,138.256 179.077,135.023 182.595 C 133.992 183.716,131.898 186.035,130.370 187.748 C 128.843 189.460,127.426 191.043,127.222 191.265 C 125.560 193.076,118.908 200.442,116.667 202.954 C 115.139 204.666,113.042 206.993,112.006 208.126 C 104.820 215.985,105.185 215.497,105.185 217.229 C 105.185 218.792,105.942 220.009,108.636 222.775 C 108.877 223.022,110.241 224.530,111.667 226.125 C 114.517 229.314,114.537 229.336,118.519 233.718 C 120.046 235.400,121.546 237.061,121.852 237.410 C 122.157 237.759,123.657 239.424,125.185 241.111 C 126.713 242.798,128.213 244.465,128.519 244.815 C 129.173 245.565,133.519 250.399,137.324 254.610 L 140.019 257.593 96.126 257.687 L 52.234 257.781 52.136 278.890 L 52.037 300.000 115.257 300.000 C 176.287 300.000,178.493 300.024,178.960 300.683 C 179.227 301.059,180.806 302.851,182.470 304.665 C 184.134 306.479,185.800 308.314,186.173 308.744 C 198.320 322.728,200.075 324.233,201.728 322.078 C 202.102 321.591,206.723 316.424,211.997 310.596 L 221.587 300.000 285.423 300.000 L 349.259 300.000 349.259 278.890 L 349.259 257.781 304.562 257.687 L 259.864 257.593 277.524 238.033 C 292.240 221.735,295.185 218.294,295.185 217.402 C 295.185 215.718,201.811 112.087,200.148 111.925 C 199.112 111.824,198.656 112.188,195.506 115.629 M201.806 118.992 C 202.544 119.808,203.398 120.760,203.704 121.108 C 204.371 121.868,209.140 127.199,210.185 128.354 C 210.593 128.804,212.093 130.472,213.519 132.061 C 214.944 133.651,216.444 135.317,216.852 135.765 C 217.259 136.213,218.759 137.880,220.185 139.469 C 221.611 141.058,223.111 142.725,223.519 143.173 C 223.926 143.620,225.426 145.287,226.852 146.876 C 228.278 148.465,229.778 150.132,230.185 150.580 C 230.593 151.028,232.093 152.704,233.519 154.304 C 234.944 155.904,236.872 158.049,237.803 159.070 C 238.733 160.091,240.150 161.661,240.951 162.558 C 241.752 163.456,242.741 164.562,243.148 165.015 C 243.556 165.468,245.056 167.139,246.481 168.728 C 247.907 170.317,249.407 171.984,249.815 172.432 C 250.222 172.880,251.722 174.546,253.148 176.136 C 254.574 177.725,256.074 179.391,256.481 179.839 C 256.889 180.287,258.389 181.954,259.815 183.543 C 261.241 185.132,262.741 186.799,263.148 187.247 C 263.556 187.694,265.056 189.370,266.481 190.971 C 267.907 192.571,269.835 194.716,270.766 195.736 C 271.696 196.757,273.113 198.327,273.914 199.225 C 274.715 200.123,275.704 201.228,276.111 201.681 C 276.519 202.135,278.019 203.806,279.444 205.395 C 280.870 206.984,282.370 208.651,282.778 209.098 C 283.185 209.546,284.685 211.216,286.111 212.809 C 287.537 214.402,288.995 216.005,289.352 216.371 C 290.396 217.444,290.658 216.997,285.926 222.222 C 284.398 223.909,282.898 225.576,282.593 225.926 C 282.287 226.276,280.787 227.943,279.259 229.630 C 277.731 231.317,276.231 232.983,275.926 233.333 C 275.620 233.683,274.120 235.350,272.593 237.037 C 271.065 238.724,269.565 240.391,269.259 240.741 C 268.954 241.091,267.454 242.757,265.926 244.444 C 264.398 246.131,262.898 247.798,262.593 248.148 C 262.287 248.498,260.828 250.121,259.350 251.754 C 257.872 253.387,256.060 255.410,255.324 256.250 C 254.437 257.262,253.678 257.778,253.076 257.778 C 252.289 257.778,252.782 257.097,256.731 252.728 C 284.894 221.574,287.765 218.305,287.743 217.407 C 287.717 216.366,201.043 119.919,199.942 119.707 C 199.400 119.602,191.366 128.153,182.963 137.778 C 182.657 138.128,181.157 139.794,179.630 141.481 C 178.102 143.169,176.602 144.835,176.296 145.185 C 175.991 145.535,174.491 147.202,172.963 148.889 C 171.435 150.576,169.935 152.243,169.630 152.593 C 168.872 153.460,163.612 159.282,163.134 159.783 C 162.922 160.004,158.189 165.269,152.615 171.481 C 147.042 177.694,141.298 184.093,139.852 185.700 C 138.406 187.308,136.972 188.909,136.667 189.259 C 136.361 189.609,134.861 191.276,133.333 192.963 C 131.806 194.650,130.306 196.317,130.000 196.667 C 129.694 197.018,128.694 198.132,127.778 199.144 C 124.651 202.596,120.557 207.140,120.000 207.778 C 119.694 208.128,118.213 209.775,116.708 211.438 C 110.555 218.236,110.495 216.537,117.145 223.843 C 118.614 225.456,120.065 227.061,120.370 227.410 C 120.676 227.759,122.176 229.424,123.704 231.111 C 125.231 232.798,126.731 234.465,127.037 234.815 C 127.343 235.165,128.843 236.831,130.370 238.519 C 131.898 240.206,133.398 241.872,133.704 242.222 C 134.009 242.572,135.509 244.239,137.037 245.926 C 138.565 247.613,140.065 249.280,140.370 249.630 C 141.398 250.807,146.477 256.413,146.944 256.886 C 147.632 257.582,147.510 257.841,146.556 257.710 C 145.723 257.595,109.815 218.196,109.815 217.397 C 109.815 216.798,199.786 117.090,200.133 117.305 C 200.315 117.417,201.068 118.176,201.806 118.992 M201.806 124.918 C 202.544 125.734,203.398 126.688,203.704 127.037 C 204.009 127.387,205.509 129.054,207.037 130.741 C 208.565 132.428,210.065 134.094,210.370 134.444 C 210.676 134.794,212.176 136.461,213.704 138.148 C 215.231 139.835,216.787 141.567,217.159 141.997 C 217.841 142.782,222.137 147.579,223.519 149.098 C 223.926 149.546,225.426 151.213,226.852 152.802 C 228.278 154.391,229.778 156.058,230.185 156.506 C 230.593 156.954,232.093 158.620,233.519 160.210 C 234.944 161.799,236.444 163.465,236.852 163.913 C 237.259 164.361,238.759 166.028,240.185 167.617 C 241.611 169.206,243.111 170.873,243.519 171.321 C 243.926 171.769,245.426 173.435,246.852 175.024 C 248.278 176.614,249.778 178.280,250.185 178.728 C 250.593 179.176,252.093 180.843,253.519 182.432 C 254.944 184.021,256.444 185.688,256.852 186.136 C 257.259 186.583,258.759 188.250,260.185 189.839 C 261.611 191.428,263.111 193.095,263.519 193.543 C 263.926 193.991,265.426 195.657,266.852 197.247 C 268.278 198.836,269.778 200.502,270.185 200.950 C 270.593 201.398,272.093 203.068,273.519 204.661 C 274.944 206.254,276.361 207.823,276.667 208.148 C 276.972 208.473,277.872 209.481,278.666 210.388 C 279.460 211.295,280.877 212.874,281.814 213.897 C 285.421 217.832,285.794 216.640,278.456 224.630 C 277.707 225.444,276.790 226.463,276.418 226.892 C 276.045 227.322,274.491 229.054,272.963 230.741 C 271.435 232.428,269.935 234.094,269.630 234.444 C 269.324 234.794,267.824 236.461,266.296 238.148 C 264.769 239.835,263.269 241.502,262.963 241.852 C 262.657 242.202,261.157 243.869,259.630 245.556 C 258.102 247.243,256.602 248.909,256.296 249.259 C 255.991 249.609,254.491 251.276,252.963 252.963 C 251.435 254.650,249.847 256.424,249.433 256.904 L 248.680 257.778 226.007 257.778 C 213.536 257.778,203.333 257.730,203.333 257.671 C 203.333 257.613,203.929 256.154,204.658 254.430 C 205.386 252.707,206.207 250.713,206.481 250.000 C 206.756 249.287,207.590 247.287,208.333 245.556 C 209.077 243.824,209.910 241.824,210.185 241.111 C 210.460 240.398,211.293 238.398,212.037 236.667 C 212.781 234.935,213.614 232.935,213.889 232.222 C 214.164 231.509,214.995 229.509,215.736 227.778 C 216.477 226.046,217.424 223.740,217.839 222.653 C 218.255 221.566,218.827 220.233,219.110 219.690 C 219.393 219.148,219.626 218.584,219.627 218.437 C 219.629 218.290,220.046 217.259,220.556 216.146 C 221.065 215.032,221.481 214.032,221.481 213.924 C 221.481 213.815,221.898 212.815,222.407 211.701 C 222.917 210.588,223.333 209.588,223.333 209.479 C 223.333 209.370,223.750 208.370,224.259 207.257 C 224.769 206.144,225.185 205.144,225.185 205.035 C 225.185 204.926,225.602 203.926,226.111 202.812 C 226.620 201.699,227.037 200.698,227.037 200.589 C 227.037 200.479,227.537 199.297,228.148 197.963 C 228.759 196.629,229.259 195.447,229.259 195.337 C 229.259 195.228,229.676 194.227,230.185 193.113 C 230.694 192.000,231.111 191.000,231.111 190.891 C 231.111 190.782,231.528 189.782,232.037 188.669 C 232.546 187.556,232.963 186.556,232.963 186.447 C 232.963 186.338,233.375 185.347,233.879 184.245 C 234.383 183.143,234.902 181.819,235.031 181.303 C 235.161 180.786,235.415 180.272,235.597 180.160 C 235.778 180.048,235.926 179.633,235.926 179.237 C 235.926 178.547,235.593 178.519,227.478 178.519 L 219.031 178.519 209.629 202.039 C 204.458 214.976,200.106 225.434,199.958 225.280 C 199.810 225.126,195.526 214.583,190.438 201.852 L 181.187 178.704 172.630 178.604 C 167.924 178.550,164.074 178.570,164.074 178.650 C 164.074 178.923,165.156 181.864,165.698 183.063 C 165.995 183.721,170.358 194.176,175.394 206.296 C 180.430 218.417,184.943 229.198,185.423 230.254 C 185.903 231.310,186.296 232.264,186.296 232.373 C 186.296 232.482,186.713 233.482,187.222 234.595 C 187.731 235.708,188.148 236.708,188.148 236.817 C 188.148 236.926,188.565 237.926,189.074 239.039 C 189.583 240.153,190.000 241.153,190.000 241.262 C 190.000 241.370,190.417 242.370,190.926 243.484 C 191.435 244.597,191.852 245.597,191.852 245.706 C 191.852 245.815,192.269 246.815,192.778 247.928 C 193.287 249.042,193.704 250.042,193.704 250.150 C 193.704 250.259,194.094 251.228,194.572 252.304 C 195.049 253.379,195.661 254.843,195.930 255.556 C 196.200 256.269,196.580 257.060,196.774 257.315 C 197.056 257.684,192.476 257.778,174.162 257.778 L 151.196 257.778 144.758 250.648 C 141.216 246.727,133.024 237.646,126.553 230.468 L 114.787 217.417 151.551 176.579 C 171.771 154.118,190.899 132.880,194.058 129.383 C 197.216 125.886,199.950 123.117,200.132 123.230 C 200.315 123.343,201.068 124.102,201.806 124.918 M179.631 180.463 C 179.631 180.514,184.205 191.972,189.795 205.926 L 199.959 231.296 200.580 229.815 C 200.922 229.000,205.513 217.583,210.782 204.444 L 220.361 180.556 226.662 180.454 C 230.128 180.398,232.963 180.453,232.963 180.576 C 232.963 180.839,231.299 185.094,230.364 187.222 C 230.006 188.037,227.878 193.120,225.635 198.519 C 223.391 203.917,221.105 209.417,220.555 210.741 C 220.004 212.065,219.175 214.065,218.712 215.185 C 218.249 216.306,215.915 221.889,213.527 227.593 C 207.452 242.099,206.594 244.163,203.630 251.389 C 200.297 259.517,199.886 259.721,197.643 254.351 C 196.856 252.467,195.132 248.343,193.811 245.185 C 192.491 242.028,190.853 238.111,190.173 236.481 C 189.493 234.852,188.273 231.935,187.463 230.000 C 186.652 228.065,183.491 220.481,180.439 213.148 C 177.387 205.815,173.123 195.583,170.963 190.410 C 168.804 185.238,167.037 180.863,167.037 180.688 C 167.037 180.513,169.870 180.370,173.333 180.370 C 176.796 180.370,179.630 180.412,179.631 180.463 M34.831 261.574 C 34.840 262.032,36.715 266.074,38.998 270.556 L 43.148 278.704 38.999 286.852 C 36.717 291.333,34.842 295.375,34.832 295.833 L 34.815 296.667 43.148 296.667 L 51.481 296.667 51.481 278.704 L 51.481 260.741 43.148 260.741 L 34.815 260.741 34.831 261.574 M349.630 278.704 L 349.630 296.667 358.333 296.667 C 363.120 296.667,367.028 296.542,367.017 296.389 C 367.006 296.236,365.026 292.195,362.618 287.408 L 358.238 278.704 362.637 269.910 C 365.057 265.074,367.037 261.032,367.037 260.929 C 367.037 260.825,363.120 260.741,358.333 260.741 L 349.630 260.741 349.630 278.704 M108.210 268.469 C 108.278 268.645,111.083 271.658,114.444 275.163 L 120.556 281.536 120.741 275.490 L 120.926 269.444 122.500 269.331 L 124.074 269.217 124.055 279.331 L 124.035 289.444 117.397 282.595 L 110.759 275.746 110.658 282.040 L 110.556 288.333 108.981 288.447 L 107.407 288.561 107.407 278.355 C 107.407 269.477,107.615 266.923,108.210 268.469 M169.564 277.872 C 174.502 288.881,174.349 288.300,172.344 288.446 L 170.800 288.558 169.794 286.316 L 168.788 284.074 164.825 284.074 L 160.862 284.074 159.903 286.296 C 158.974 288.449,156.973 289.442,155.842 288.311 C 155.505 287.974,164.579 268.517,165.071 268.520 C 165.236 268.521,167.258 272.730,169.564 277.872 M198.253 269.786 C 201.579 271.401,202.438 272.901,200.603 273.889 L 199.354 274.562 198.288 273.571 C 192.724 268.396,184.409 275.534,187.995 282.407 C 190.300 286.825,197.272 286.700,198.837 282.213 L 199.221 281.111 196.833 281.111 L 194.444 281.111 194.444 279.630 L 194.444 278.148 198.570 278.148 L 202.696 278.148 202.484 280.205 C 201.494 289.801,189.172 292.056,184.930 283.416 C 180.718 274.839,189.712 265.636,198.253 269.786 M265.093 269.620 C 266.609 270.308,266.667 270.396,266.667 272.019 C 266.667 273.974,266.754 273.930,264.832 272.928 C 259.839 270.326,254.815 273.300,254.815 278.857 C 254.815 284.287,260.030 287.290,264.907 284.670 L 266.667 283.725 266.667 285.585 C 266.667 289.282,259.639 290.054,255.407 286.822 C 246.241 279.824,254.655 264.882,265.093 269.620 M67.611 270.741 C 70.320 277.940,71.984 281.863,72.219 281.606 C 72.374 281.436,73.549 278.588,74.829 275.278 L 77.155 269.259 78.763 269.259 C 79.647 269.259,80.370 269.410,80.370 269.593 C 80.370 270.239,72.340 289.444,72.070 289.444 C 71.831 289.444,64.634 272.356,63.911 270.071 C 63.386 268.415,66.981 269.066,67.611 270.741 M94.444 278.910 L 94.444 288.561 92.870 288.447 L 91.296 288.333 91.197 278.796 L 91.099 269.259 92.772 269.259 L 94.444 269.259 94.444 278.910 M146.667 270.741 L 146.667 272.222 144.637 272.222 L 142.607 272.222 142.507 280.278 L 142.407 288.333 140.926 288.333 L 139.444 288.333 139.345 280.278 L 139.245 272.222 137.030 272.222 L 134.815 272.222 134.815 270.741 L 134.815 269.259 140.741 269.259 L 146.667 269.259 146.667 270.741 M225.185 270.741 L 225.185 272.222 221.481 272.222 L 217.778 272.222 217.778 274.444 L 217.778 276.667 221.296 276.667 L 224.815 276.667 224.815 278.148 L 224.815 279.630 221.296 279.630 L 217.778 279.630 217.778 282.593 L 217.778 285.556 221.504 285.556 L 225.230 285.556 225.115 286.944 L 225.000 288.333 219.722 288.436 L 214.444 288.539 214.444 278.899 L 214.444 269.259 219.815 269.259 L 225.185 269.259 225.185 270.741 M281.852 277.407 L 281.852 285.556 284.652 285.556 L 287.452 285.556 287.337 286.944 L 287.222 288.333 282.870 288.438 L 278.519 288.542 278.519 278.901 L 278.519 269.259 280.185 269.259 L 281.852 269.259 281.852 277.407 M301.481 275.944 C 301.481 284.403,301.948 285.556,305.370 285.556 C 308.793 285.556,309.259 284.403,309.259 275.944 L 309.259 269.259 310.926 269.259 L 312.593 269.259 312.591 275.833 C 312.587 285.698,310.824 288.885,305.370 288.885 C 299.916 288.885,298.153 285.698,298.150 275.833 L 298.148 269.259 299.815 269.259 L 301.481 269.259 301.481 275.944 M332.196 269.908 C 334.929 271.302,336.055 275.402,334.259 277.423 C 333.637 278.123,333.608 278.287,334.074 278.449 C 335.123 278.811,336.565 280.711,336.775 282.007 C 337.471 286.293,334.315 288.671,328.236 288.441 L 325.370 288.333 325.272 278.796 L 325.173 269.259 328.049 269.260 C 330.056 269.260,331.310 269.456,332.196 269.908 M328.519 274.815 C 328.519 277.673,329.128 278.162,331.029 276.831 C 332.898 275.522,331.704 272.222,329.362 272.222 C 328.565 272.222,328.519 272.364,328.519 274.815 M163.788 277.591 C 162.220 280.769,162.210 280.741,164.991 280.741 C 167.712 280.741,167.630 281.082,165.857 277.121 L 164.982 275.168 163.788 277.591 M328.519 282.964 L 328.519 285.651 330.461 285.393 C 334.984 284.793,334.916 280.891,330.374 280.454 L 328.519 280.276 328.519 282.964 M186.842 301.257 C 188.483 303.098,193.020 308.144,193.951 309.164 C 194.393 309.647,195.790 311.200,197.056 312.614 C 198.322 314.028,199.580 315.185,199.850 315.185 C 200.121 315.185,203.448 311.769,207.245 307.593 C 211.798 302.583,214.397 300.000,214.882 300.000 C 215.895 300.000,215.752 300.231,212.593 303.712 C 211.065 305.394,209.565 307.057,209.259 307.407 C 207.802 309.077,202.968 314.403,201.481 315.978 L 199.815 317.744 193.148 310.312 C 183.382 299.424,183.844 300.000,184.869 300.000 C 185.372 300.000,186.182 300.516,186.842 301.257 M209.430 301.204 C 208.877 301.866,207.737 303.170,206.897 304.103 C 206.058 305.036,204.148 307.155,202.653 308.812 L 199.937 311.826 198.000 309.709 C 196.935 308.545,194.521 305.884,192.636 303.796 L 189.209 300.000 199.823 300.000 L 210.436 300.000 209.430 301.204 " stroke="none" fill="#fbd373" fill-rule="evenodd"></path><path id="path2" d="M301.263 275.556 C 301.263 279.120,301.319 280.579,301.387 278.796 C 301.455 277.014,301.455 274.097,301.387 272.315 C 301.319 270.532,301.263 271.991,301.263 275.556 M309.412 275.556 C 309.412 279.120,309.467 280.579,309.535 278.796 C 309.603 277.014,309.603 274.097,309.535 272.315 C 309.467 270.532,309.412 271.991,309.412 275.556 M298.300 275.741 C 298.299 279.204,298.355 280.670,298.423 279.000 C 298.492 277.329,298.492 274.496,298.424 272.703 C 298.356 270.911,298.300 272.278,298.300 275.741 M139.417 280.185 C 139.417 284.667,139.471 286.449,139.536 284.146 C 139.601 281.843,139.601 278.177,139.535 275.998 C 139.470 273.819,139.417 275.704,139.417 280.185 M328.273 274.815 C 328.273 276.343,328.338 276.968,328.418 276.204 C 328.498 275.440,328.498 274.190,328.418 273.426 C 328.338 272.662,328.273 273.287,328.273 274.815 M219.352 276.939 C 220.319 277.015,221.903 277.015,222.870 276.939 C 223.838 276.863,223.046 276.800,221.111 276.800 C 219.176 276.800,218.384 276.863,219.352 276.939 M112.593 277.523 C 112.593 277.587,113.134 278.129,113.796 278.727 L 115.000 279.815 113.912 278.611 C 112.898 277.489,112.593 277.237,112.593 277.523 M251.582 278.889 C 251.582 279.806,251.655 280.181,251.743 279.722 C 251.831 279.264,251.831 278.514,251.743 278.056 C 251.655 277.597,251.582 277.972,251.582 278.889 M194.538 279.815 C 194.542 280.630,194.618 280.919,194.706 280.459 C 194.795 279.998,194.792 279.331,194.699 278.977 C 194.606 278.623,194.534 279.000,194.538 279.815 M328.270 282.778 C 328.271 284.204,328.338 284.742,328.418 283.973 C 328.499 283.205,328.497 282.038,328.415 281.381 C 328.334 280.723,328.268 281.352,328.270 282.778 " stroke="none" fill="#9f8349" fill-rule="evenodd"></path><path id="path3" d="M52.025 278.704 C 52.025 290.315,52.072 295.011,52.129 289.140 C 52.187 283.269,52.187 273.769,52.129 268.029 C 52.072 262.289,52.025 267.093,52.025 278.704 M91.287 278.704 L 91.296 288.333 92.778 288.365 L 94.259 288.397 92.877 288.251 L 91.494 288.106 91.385 278.590 L 91.277 269.074 91.287 278.704 M134.916 270.741 C 134.916 271.657,134.988 272.032,135.076 271.574 C 135.164 271.116,135.164 270.366,135.076 269.907 C 134.988 269.449,134.916 269.824,134.916 270.741 M281.639 277.222 C 281.640 281.704,281.693 283.486,281.758 281.183 C 281.823 278.880,281.823 275.214,281.758 273.035 C 281.692 270.857,281.639 272.741,281.639 277.222 M312.377 276.111 C 312.377 279.981,312.432 281.514,312.499 279.518 C 312.565 277.521,312.565 274.354,312.498 272.481 C 312.431 270.607,312.376 272.241,312.377 276.111 M325.361 278.704 L 325.370 288.333 328.704 288.358 L 332.037 288.382 328.803 288.251 L 325.568 288.119 325.459 278.597 L 325.351 269.074 325.361 278.704 M120.823 275.536 L 120.741 281.627 119.352 280.358 L 117.963 279.088 119.340 280.544 C 121.161 282.470,121.147 282.511,121.018 275.515 L 120.906 269.444 120.823 275.536 M266.402 272.037 C 266.405 273.056,266.477 273.428,266.562 272.865 C 266.647 272.302,266.645 271.469,266.557 271.013 C 266.469 270.558,266.399 271.019,266.402 272.037 M142.307 280.070 L 142.222 288.103 140.833 288.249 L 139.444 288.394 140.845 288.456 C 142.680 288.538,142.626 288.822,142.500 279.805 L 142.392 272.037 142.307 280.070 M217.526 274.444 C 217.526 275.769,217.593 276.310,217.675 275.648 C 217.757 274.986,217.757 273.903,217.675 273.241 C 217.593 272.579,217.526 273.120,217.526 274.444 M110.370 281.831 L 110.370 288.106 108.981 288.251 L 107.593 288.397 109.074 288.365 L 110.556 288.333 110.657 282.074 L 110.759 275.814 111.768 276.703 L 112.778 277.593 111.880 276.574 C 110.448 274.950,110.370 275.220,110.370 281.831 M183.805 278.889 C 183.805 279.806,183.877 280.181,183.965 279.722 C 184.053 279.264,184.053 278.514,183.965 278.056 C 183.877 277.597,183.805 277.972,183.805 278.889 M254.538 278.704 C 254.542 279.519,254.618 279.808,254.706 279.348 C 254.795 278.887,254.792 278.220,254.699 277.866 C 254.606 277.512,254.534 277.889,254.538 278.704 M217.532 282.593 C 217.532 284.120,217.597 284.745,217.677 283.981 C 217.757 283.218,217.757 281.968,217.677 281.204 C 217.597 280.440,217.532 281.065,217.532 282.593 M162.222 280.833 C 162.222 280.986,163.431 281.088,164.907 281.061 C 167.735 281.008,167.427 280.842,164.166 280.663 C 163.097 280.604,162.222 280.681,162.222 280.833 M117.407 282.778 C 118.514 283.898,119.502 284.815,119.604 284.815 C 119.706 284.815,118.884 283.898,117.778 282.778 C 116.671 281.657,115.683 280.741,115.581 280.741 C 115.479 280.741,116.301 281.657,117.407 282.778 M163.069 283.978 C 164.248 284.052,166.081 284.051,167.143 283.976 C 168.205 283.902,167.241 283.841,165.000 283.842 C 162.759 283.843,161.890 283.904,163.069 283.978 M266.290 285.631 C 266.192 286.792,266.246 287.607,266.411 287.442 C 266.576 287.276,266.657 286.325,266.591 285.329 L 266.470 283.519 266.290 285.631 M192.875 285.818 C 193.335 285.906,194.002 285.903,194.356 285.810 C 194.710 285.717,194.333 285.645,193.519 285.649 C 192.704 285.653,192.414 285.729,192.875 285.818 M260.652 285.818 C 261.113 285.906,261.780 285.903,262.134 285.810 C 262.488 285.717,262.111 285.645,261.296 285.649 C 260.481 285.653,260.192 285.729,260.652 285.818 M287.093 286.748 L 287.037 288.125 282.685 288.242 L 278.333 288.359 282.697 288.439 C 287.447 288.526,287.610 288.454,287.305 286.420 C 287.172 285.530,287.140 285.579,287.093 286.748 M310.162 286.759 L 309.074 287.963 310.278 286.875 C 310.940 286.277,311.481 285.735,311.481 285.671 C 311.481 285.385,311.176 285.637,310.162 286.759 M155.798 288.241 C 155.892 288.394,156.617 288.519,157.407 288.519 C 158.198 288.519,158.922 288.394,159.017 288.241 C 159.111 288.088,158.387 287.963,157.407 287.963 C 156.428 287.963,155.704 288.088,155.798 288.241 M170.709 288.265 C 170.877 288.432,171.660 288.512,172.451 288.443 L 173.889 288.318 172.147 288.139 C 171.189 288.041,170.542 288.097,170.709 288.265 M216.944 288.423 C 218.421 288.493,220.838 288.493,222.315 288.423 C 223.792 288.353,222.583 288.295,219.630 288.295 C 216.676 288.295,215.468 288.353,216.944 288.423 M192.504 288.780 C 192.965 288.869,193.632 288.866,193.986 288.773 C 194.340 288.680,193.963 288.608,193.148 288.612 C 192.333 288.616,192.044 288.692,192.504 288.780 M260.652 288.780 C 261.113 288.869,261.780 288.866,262.134 288.773 C 262.488 288.680,262.111 288.608,261.296 288.612 C 260.481 288.616,260.192 288.692,260.652 288.780 M304.727 288.780 C 305.187 288.869,305.854 288.866,306.208 288.773 C 306.562 288.680,306.185 288.608,305.370 288.612 C 304.556 288.616,304.266 288.692,304.727 288.780 " stroke="none" fill="#c29b54" fill-rule="evenodd"></path><path id="path4" d="M107.494 278.426 L 107.580 288.333 107.685 278.545 L 107.790 268.756 109.173 270.026 L 110.556 271.296 109.279 269.907 C 108.577 269.144,107.869 268.519,107.705 268.519 C 107.541 268.519,107.446 272.977,107.494 278.426 M94.235 278.704 C 94.236 284.000,94.288 286.115,94.351 283.404 C 94.414 280.693,94.414 276.360,94.351 273.774 C 94.287 271.189,94.235 273.407,94.235 278.704 M121.263 275.556 C 121.263 279.120,121.319 280.579,121.387 278.796 C 121.455 277.014,121.455 274.097,121.387 272.315 C 121.319 270.532,121.263 271.991,121.263 275.556 M123.790 278.869 L 123.704 288.664 122.315 287.395 L 120.926 286.125 122.302 287.581 C 124.163 289.549,124.100 289.878,123.981 278.852 L 123.876 269.074 123.790 278.869 M146.352 270.444 L 146.296 271.815 144.167 271.949 L 142.037 272.082 144.178 272.152 C 146.525 272.229,146.840 271.961,146.565 270.124 C 146.431 269.229,146.399 269.276,146.352 270.444 M214.605 278.889 C 214.605 284.083,214.658 286.208,214.721 283.611 C 214.785 281.014,214.785 276.764,214.721 274.167 C 214.658 271.569,214.605 273.694,214.605 278.889 M224.865 270.635 L 224.815 271.825 221.204 271.946 L 217.593 272.067 221.215 272.145 C 225.102 272.228,225.418 272.077,225.080 270.305 C 224.953 269.642,224.904 269.718,224.865 270.635 M278.680 278.889 C 278.680 284.083,278.732 286.208,278.795 283.611 C 278.859 281.014,278.859 276.764,278.795 274.167 C 278.732 271.569,278.680 273.694,278.680 278.889 M254.236 271.944 L 253.148 273.148 254.352 272.060 C 255.014 271.462,255.556 270.920,255.556 270.857 C 255.556 270.570,255.250 270.822,254.236 271.944 M136.210 272.120 C 136.876 272.203,137.876 272.201,138.433 272.116 C 138.989 272.032,138.444 271.965,137.222 271.967 C 136.000 271.969,135.545 272.038,136.210 272.120 M114.799 276.019 C 116.334 277.654,116.667 277.948,116.667 277.670 C 116.667 277.610,115.875 276.819,114.907 275.910 L 113.148 274.259 114.799 276.019 M224.538 278.333 C 224.542 279.148,224.618 279.438,224.706 278.977 C 224.795 278.516,224.792 277.850,224.699 277.496 C 224.606 277.142,224.534 277.519,224.538 278.333 M186.768 278.889 C 186.768 279.806,186.840 280.181,186.928 279.722 C 187.016 279.264,187.016 278.514,186.928 278.056 C 186.840 277.597,186.768 277.972,186.768 278.889 M328.801 277.669 C 329.261 277.758,329.928 277.755,330.282 277.662 C 330.636 277.569,330.259 277.497,329.444 277.501 C 328.630 277.505,328.340 277.581,328.801 277.669 M196.574 278.421 C 197.644 278.496,199.394 278.496,200.463 278.421 C 201.532 278.346,200.657 278.285,198.519 278.285 C 196.380 278.285,195.505 278.346,196.574 278.421 M116.281 281.204 C 117.816 282.839,118.148 283.133,118.148 282.855 C 118.148 282.795,117.356 282.004,116.389 281.096 L 114.630 279.444 116.281 281.204 M336.390 283.148 C 336.394 283.963,336.470 284.253,336.558 283.792 C 336.647 283.331,336.643 282.665,336.551 282.310 C 336.458 281.956,336.386 282.333,336.390 283.148 M224.908 286.852 C 224.912 287.667,224.988 287.956,225.077 287.496 C 225.165 287.035,225.162 286.368,225.069 286.014 C 224.977 285.660,224.904 286.037,224.908 286.852 " stroke="none" fill="#7c6437" fill-rule="evenodd"></path></g></svg>